<mxfile host="app.diagrams.net" agent="Mozilla/5.0 (Macintosh; Intel Mac OS X 10_15_7) AppleWebKit/537.36 (KHTML, like Gecko) Chrome/127.0.0.0 Safari/537.36" version="24.7.7">
  <diagram name="Página-1" id="EY0DNyiROPhQCeFMEm_V">
    <mxGraphModel dx="1598" dy="581" grid="1" gridSize="10" guides="1" tooltips="1" connect="1" arrows="1" fold="1" page="1" pageScale="1" pageWidth="827" pageHeight="1169" math="0" shadow="0">
      <root>
        <mxCell id="0" />
        <mxCell id="1" parent="0" />
        <mxCell id="5iuxb7gDlxlJrHCA9h2w-12" style="edgeStyle=orthogonalEdgeStyle;rounded=0;orthogonalLoop=1;jettySize=auto;html=1;entryX=0;entryY=0.5;entryDx=0;entryDy=0;fillColor=#d5e8d4;strokeColor=#82b366;" edge="1" parent="1" source="5iuxb7gDlxlJrHCA9h2w-1" target="5iuxb7gDlxlJrHCA9h2w-3">
          <mxGeometry relative="1" as="geometry" />
        </mxCell>
        <mxCell id="5iuxb7gDlxlJrHCA9h2w-1" value="&lt;font style=&quot;font-size: 15px;&quot;&gt;&lt;b style=&quot;&quot;&gt;Patch&amp;nbsp;&lt;/b&gt;&lt;/font&gt;&lt;div style=&quot;font-size: 15px;&quot;&gt;&lt;font style=&quot;font-size: 15px;&quot;&gt;&lt;b style=&quot;&quot;&gt;extaction&lt;/b&gt;&lt;/font&gt;&lt;/div&gt;&lt;div style=&quot;font-size: 14px;&quot;&gt;&lt;font style=&quot;font-size: 14px;&quot;&gt;&lt;br&gt;&lt;/font&gt;&lt;/div&gt;&lt;div style=&quot;font-size: 14px;&quot;&gt;&lt;font style=&quot;font-size: 14px;&quot;&gt;patch shape = (50,2)&lt;/font&gt;&lt;/div&gt;&lt;div style=&quot;font-size: 14px;&quot;&gt;&lt;font style=&quot;font-size: 14px;&quot;&gt;nº filters = 64&lt;/font&gt;&lt;/div&gt;" style="rounded=0;whiteSpace=wrap;html=1;fillColor=#d5e8d4;strokeColor=#82b366;" vertex="1" parent="1">
          <mxGeometry x="80" y="240" width="150" height="110" as="geometry" />
        </mxCell>
        <mxCell id="5iuxb7gDlxlJrHCA9h2w-4" style="edgeStyle=orthogonalEdgeStyle;rounded=0;orthogonalLoop=1;jettySize=auto;html=1;entryX=0.5;entryY=1;entryDx=0;entryDy=0;fillColor=#d5e8d4;strokeColor=#82b366;" edge="1" parent="1" source="5iuxb7gDlxlJrHCA9h2w-2" target="5iuxb7gDlxlJrHCA9h2w-3">
          <mxGeometry relative="1" as="geometry" />
        </mxCell>
        <mxCell id="5iuxb7gDlxlJrHCA9h2w-2" value="&lt;font style=&quot;font-size: 40px;&quot;&gt;~&lt;/font&gt;" style="ellipse;whiteSpace=wrap;html=1;aspect=fixed;fillColor=#d5e8d4;strokeColor=#82b366;" vertex="1" parent="1">
          <mxGeometry x="300" y="355" width="80" height="80" as="geometry" />
        </mxCell>
        <mxCell id="5iuxb7gDlxlJrHCA9h2w-9" style="edgeStyle=orthogonalEdgeStyle;rounded=0;orthogonalLoop=1;jettySize=auto;html=1;entryX=0;entryY=0.5;entryDx=0;entryDy=0;fillColor=#d5e8d4;strokeColor=#82b366;" edge="1" parent="1" source="5iuxb7gDlxlJrHCA9h2w-3" target="5iuxb7gDlxlJrHCA9h2w-6">
          <mxGeometry relative="1" as="geometry" />
        </mxCell>
        <mxCell id="5iuxb7gDlxlJrHCA9h2w-3" value="&lt;font size=&quot;1&quot; style=&quot;&quot;&gt;&lt;b style=&quot;font-size: 15px;&quot;&gt;Position embedding&lt;/b&gt;&lt;/font&gt;" style="rounded=0;whiteSpace=wrap;html=1;fillColor=#d5e8d4;strokeColor=#82b366;" vertex="1" parent="1">
          <mxGeometry x="280" y="265" width="120" height="60" as="geometry" />
        </mxCell>
        <mxCell id="5iuxb7gDlxlJrHCA9h2w-11" style="edgeStyle=orthogonalEdgeStyle;rounded=0;orthogonalLoop=1;jettySize=auto;html=1;fillColor=#d5e8d4;strokeColor=#82b366;" edge="1" parent="1" source="5iuxb7gDlxlJrHCA9h2w-6">
          <mxGeometry relative="1" as="geometry">
            <mxPoint x="430" y="295" as="targetPoint" />
            <Array as="points">
              <mxPoint x="680" y="295" />
              <mxPoint x="680" y="210" />
              <mxPoint x="430" y="210" />
            </Array>
          </mxGeometry>
        </mxCell>
        <mxCell id="5iuxb7gDlxlJrHCA9h2w-14" style="edgeStyle=orthogonalEdgeStyle;rounded=0;orthogonalLoop=1;jettySize=auto;html=1;entryX=0;entryY=0.5;entryDx=0;entryDy=0;fillColor=#d5e8d4;strokeColor=#82b366;" edge="1" parent="1" source="5iuxb7gDlxlJrHCA9h2w-6" target="5iuxb7gDlxlJrHCA9h2w-13">
          <mxGeometry relative="1" as="geometry" />
        </mxCell>
        <mxCell id="5iuxb7gDlxlJrHCA9h2w-6" value="&lt;font style=&quot;font-size: 15px;&quot;&gt;&lt;b&gt;Transformer Block&lt;/b&gt;&lt;/font&gt;&lt;div&gt;&lt;font style=&quot;font-size: 15px;&quot;&gt;&lt;b&gt;&lt;br&gt;&lt;/b&gt;&lt;/font&gt;&lt;/div&gt;&lt;div&gt;&lt;span style=&quot;font-size: 14px;&quot;&gt;nº heads = 4&lt;/span&gt;&lt;/div&gt;" style="rounded=0;whiteSpace=wrap;html=1;fillColor=#d5e8d4;strokeColor=#82b366;" vertex="1" parent="1">
          <mxGeometry x="450" y="240" width="200" height="110" as="geometry" />
        </mxCell>
        <mxCell id="5iuxb7gDlxlJrHCA9h2w-8" value="&lt;font style=&quot;font-size: 14px;&quot;&gt;nº layers = 4&lt;/font&gt;" style="text;html=1;align=center;verticalAlign=middle;resizable=0;points=[];autosize=1;" vertex="1" parent="1">
          <mxGeometry x="500" y="180" width="100" height="30" as="geometry" />
        </mxCell>
        <mxCell id="5iuxb7gDlxlJrHCA9h2w-13" value="&lt;font style=&quot;font-size: 15px;&quot;&gt;&lt;b&gt;Classification head&lt;/b&gt;&lt;/font&gt;" style="rounded=0;whiteSpace=wrap;html=1;fillColor=#d5e8d4;strokeColor=#82b366;" vertex="1" parent="1">
          <mxGeometry x="700" y="265" width="120" height="60" as="geometry" />
        </mxCell>
        <mxCell id="5iuxb7gDlxlJrHCA9h2w-16" value="" style="shape=flexArrow;endArrow=classic;html=1;rounded=0;exitX=1;exitY=0.5;exitDx=0;exitDy=0;fillColor=#d5e8d4;strokeColor=#82b366;" edge="1" parent="1" source="5iuxb7gDlxlJrHCA9h2w-13">
          <mxGeometry width="50" height="50" relative="1" as="geometry">
            <mxPoint x="760" y="340" as="sourcePoint" />
            <mxPoint x="880" y="295" as="targetPoint" />
          </mxGeometry>
        </mxCell>
        <mxCell id="5iuxb7gDlxlJrHCA9h2w-17" value="&lt;font style=&quot;font-size: 15px;&quot;&gt;Probabilities&lt;/font&gt;" style="text;html=1;align=center;verticalAlign=middle;resizable=0;points=[];autosize=1;" vertex="1" parent="1">
          <mxGeometry x="870" y="280" width="110" height="30" as="geometry" />
        </mxCell>
        <mxCell id="5iuxb7gDlxlJrHCA9h2w-18" value="" style="shape=flexArrow;endArrow=classic;html=1;rounded=0;entryX=0;entryY=0.5;entryDx=0;entryDy=0;fillColor=#d5e8d4;strokeColor=#82b366;" edge="1" parent="1" target="5iuxb7gDlxlJrHCA9h2w-1">
          <mxGeometry width="50" height="50" relative="1" as="geometry">
            <mxPoint x="20" y="295" as="sourcePoint" />
            <mxPoint x="350" y="350" as="targetPoint" />
          </mxGeometry>
        </mxCell>
        <mxCell id="5iuxb7gDlxlJrHCA9h2w-19" value="&lt;font style=&quot;font-size: 15px;&quot;&gt;Input&lt;/font&gt;&lt;div&gt;(478, 2)&lt;/div&gt;" style="text;html=1;align=center;verticalAlign=middle;resizable=0;points=[];autosize=1;strokeColor=none;fillColor=none;" vertex="1" parent="1">
          <mxGeometry x="-40" y="270" width="60" height="50" as="geometry" />
        </mxCell>
      </root>
    </mxGraphModel>
  </diagram>
</mxfile>
